<?xml version="1.0" encoding="UTF-8" standalone="no"?>
<svg width="600px" height="147px" viewBox="0 0 600 147" version="1.1" xmlns="http://www.w3.org/2000/svg" xmlns:xlink="http://www.w3.org/1999/xlink" xmlns:sketch="http://www.bohemiancoding.com/sketch/ns">
    <!-- Generator: Sketch 3.3.2 (12043) - http://www.bohemiancoding.com/sketch -->
    <title>Pigeonly - Light - Printready - CMYK (1)</title>
    <desc>Created with Sketch.</desc>
    <defs>
        <path id="path-1" d="M0,0.0388123012 L599.974549,0.0388123012 L599.974549,146.977731 L0,146.977731 L0,0.0388123012 Z"></path>
    </defs>
    <g id="Sign-on" stroke="none" stroke-width="1" fill="none" fill-rule="evenodd" sketch:type="MSPage">
        <g id="Login" sketch:type="MSArtboardGroup" transform="translate(-75.000000, -290.000000)">
            <g id="Pigeonly---Light---Printready---CMYK-(1)" sketch:type="MSLayerGroup" transform="translate(75.000000, 290.000000)">
                <mask id="mask-2" sketch:name="Clip 2" fill="white">
                    <use xlink:href="#path-1"></use>
                </mask>
                <g id="Clip-2"></g>
                <path d="M281.573701,55.2254507 L270.79597,55.2254507 C269.763309,57.3181336 269.345281,59.721315 269.745493,61.9234358 L289.065111,61.9234358 C289.175822,60.8112407 289.245811,59.7295864 289.29544,58.6638388 C286.794274,57.1978791 284.206575,56.0678685 281.573701,55.2254507 L281.573701,55.2254507 Z M246.503924,42.6031813 C246.503924,44.7111347 248.226299,46.4195122 250.351432,46.4195122 C252.475928,46.4195122 254.198303,44.7111347 254.198303,42.6031813 C254.198303,40.4958643 252.475928,38.7874867 250.351432,38.7874867 C248.226299,38.7874867 246.503924,40.4958643 246.503924,42.6031813 L246.503924,42.6031813 Z M289.339979,57.3003181 C286.981972,54.7113468 284.462354,52.5149523 281.832025,50.6774125 C279.834146,34.5531283 267.88123,25.6275716 250.751007,25.6275716 C234.733616,25.6275716 220.916437,36.3766702 219.188971,55.2254507 L219.188971,61.9234358 C220.758643,79.9940615 234.733616,90.4301166 250.751007,90.4301166 C260.95737,90.4301166 272.891835,86.3802757 278.701591,78.7469777 L284.197031,83.1092259 C276.661082,92.9230117 263.155673,97.9081654 250.751007,97.9081654 C228.92386,97.9081654 211.337434,82.7980912 211.337434,58.3412513 C211.337434,35.2861082 228.92386,18.6184517 250.751007,18.6184517 C271.422694,18.6184517 289.967338,30.5045599 289.339979,57.3003181 L289.339979,57.3003181 Z M600,18.4625663 L552.734889,127.505408 L544.570308,127.505408 L558.858961,94.4812301 L527.769035,18.4625663 L536.09141,18.4625663 L554.148674,63.9486744 L563.255567,86.2250265 L572.207211,63.7934252 L591.677625,18.4625663 L600,18.4625663 L600,18.4625663 Z M527.165854,87.7826087 C523.240085,89.6519618 519.000636,90.8977731 515.231389,90.8977731 C503.141039,90.8977731 500.9421,83.576246 500.9421,73.1395546 L500.9421,0.0388123012 L493.404878,0.0388123012 L493.404878,73.1395546 C493.404878,88.2502651 498.743796,97.9081654 515.231389,97.9081654 C520.09947,97.9081654 524.966914,96.349947 529.834995,94.0135737 L527.165854,87.7826087 L527.165854,87.7826087 Z M409.201909,19.864263 L409.201909,33.5726405 C415.170095,22.9800636 426.004454,18.6184517 436.838812,18.4625663 C457.567126,18.4625663 471.855779,31.0797455 471.855779,52.421421 L471.855779,96.8176034 L464.160764,96.8176034 L464.160764,52.5773065 C464.160764,35.130859 453.326405,25.7840933 436.525133,25.9393425 C420.507741,26.095228 409.359703,38.0901379 409.359703,53.9796394 L409.359703,96.8176034 L401.664687,96.8176034 L401.664687,19.864263 L409.201909,19.864263 L409.201909,19.864263 Z M375.835419,58.4965005 C375.835419,38.5577943 361.546766,25.6275716 343.959703,25.6275716 C326.372641,25.6275716 312.083351,38.5577943 312.083351,58.4965005 C312.083351,78.4358431 326.372641,90.4301166 343.959703,90.4301166 C361.546766,90.4301166 375.835419,78.4358431 375.835419,58.4965005 L375.835419,58.4965005 Z M304.546129,58.4965005 C304.546129,34.0402969 322.133192,18.4625663 343.959703,18.4625663 C365.786214,18.4625663 383.373277,34.0402969 383.373277,58.4965005 C383.373277,82.9533404 365.786214,97.9081654 343.959703,97.9081654 C322.133192,97.9081654 304.546129,82.9533404 304.546129,58.4965005 L304.546129,58.4965005 Z M132.903499,56.0042418 C132.903499,71.8931071 143.895016,85.6021209 161.6386,85.6021209 C177.655355,85.6021209 190.688653,71.8931071 190.688653,56.0042418 C190.688653,36.5319194 177.655355,26.095228 161.6386,26.095228 C145.779639,26.095228 132.903499,35.9090138 132.903499,56.0042418 L132.903499,56.0042418 Z M191.159491,16.7484624 L196.18473,21.1100742 L188.647508,29.8339343 C194.142948,35.7537646 198.225875,43.5423118 198.225875,56.0042418 C198.225875,69.4014846 190.217179,82.9533404 177.341039,88.716649 C191.002969,93.5459173 198.539555,103.048568 198.539555,116.28929 C198.539555,137.008059 182.20912,146.977731 161.6386,146.977731 C141.068081,146.977731 124.894804,135.760976 124.894804,116.28929 L132.589183,116.28929 C132.589183,132.022906 146.093319,139.499682 161.6386,139.499682 C177.184517,139.499682 191.002969,132.645811 191.002969,116.28929 C191.002969,99.7768823 176.085048,93.2347826 161.6386,93.2347826 C139.184093,93.2347826 125.20912,76.5664899 125.20912,56.0042418 C125.20912,32.0144221 141.539555,18.4625663 161.6386,18.4625663 C169.490138,18.4625663 177.655355,21.266596 183.622906,25.4723224 L191.159491,16.7484624 L191.159491,16.7484624 Z M100.007211,96.8176034 L107.701591,96.8176034 L107.701591,19.5531283 L100.007211,19.5531283 L100.007211,96.8176034 Z M8.4795334,7.82735949 L8.4795334,63.7507953 L48.2067869,63.7507953 C84.7940615,63.7507953 84.7940615,7.82735949 48.2067869,7.82735949 L8.4795334,7.82735949 L8.4795334,7.82735949 Z M8.4795334,71.3840933 L8.4795334,96.8176034 L0,96.8176034 L0,0.0388123012 L48.2067869,0.0388123012 C95.9427359,0.0388123012 95.9427359,71.3840933 48.2067869,71.3840933 L8.4795334,71.3840933 L8.4795334,71.3840933 Z" id="Fill-1" fill="#F5F4F4" sketch:type="MSShapeGroup" mask="url(#mask-2)"></path>
            </g>
        </g>
    </g>
</svg>